<?xml version="1.0" encoding="UTF-8" standalone="no"?>
<svg width="211px" height="44px" viewBox="0 0 211 44" version="1.1" xmlns="http://www.w3.org/2000/svg" xmlns:xlink="http://www.w3.org/1999/xlink">
    <!-- Generator: Sketch 3.6.1 (26313) - http://www.bohemiancoding.com/sketch -->
    <title>Group 7</title>
    <desc>Created with Sketch.</desc>
    <defs></defs>
    <g id="Portfolio2" stroke="none" stroke-width="1" fill="none" fill-rule="evenodd">
        <g id="Group-7">
            <g id="logo_h-copy-2">
                <rect id="black_square" fill="#E53935" x="0" y="0" width="44" height="44" rx="4"></rect>
                <g id="Group" transform="translate(10.000000, 9.000000)" fill="#FFFFFF">
                    <path d="M13,9.0009273 C13,9.0009273 14.2145135,9.01311067 15.0593313,9.0009273 C15.9041491,8.98874394 16.9811225,9.10063955 16.9811225,9.10063955 C17.4776841,9.10063955 19.1803696,9.43862962 19.6301774,9.58656461 C21.0707188,10.0603368 22.0770536,11.0423696 22.1975622,11.1882786 C22.2841386,11.2931032 22.8381163,11.7901284 23.2354267,12.7459687 C23.3267975,12.9657863 23.57588,13.6851094 23.5953112,13.7478702 C23.6743271,14.0030843 23.8298367,14.5227502 23.8840182,15.2742936 C24.1449773,18.894019 23.8840182,27 23.8840182,27 L13,27 L13,9.0009273 Z" id="short_h"></path>
                    <rect id="long_h" x="0" y="0" width="11" height="27"></rect>
                </g>
            </g>
            <text id="andrew-hahn" font-family="Nitti-Normal, Nitti" font-size="20" font-weight="normal" fill="#000000">
                <tspan x="54" y="22">andrew hahn</tspan>
            </text>
            <text id="user-experience-desi" font-family="Nitti-Normal, Nitti" font-size="12" font-weight="normal" fill="#757575">
                <tspan x="54" y="36">user experience design</tspan>
            </text>
        </g>
    </g>
</svg>